<svg width="30" height="28" viewBox="0 0 30 28" fill="none" xmlns="http://www.w3.org/2000/svg">
<path d="M15.014 9.68V15.4533M15.014 21.2266H15.028M28.6252 22.6699L17.4341 2.46338C17.1901 2.01913 16.8362 1.64962 16.4086 1.39253C15.981 1.13545 15.4949 1 15 1C14.5051 1 14.0191 1.13545 13.5915 1.39253C13.1639 1.64962 12.81 2.01913 12.566 2.46338L1.3749 22.6699C1.12825 23.1106 0.998915 23.6108 1.00001 24.1197C1.0011 24.6287 1.13258 25.1283 1.38112 25.5679C1.62965 26.0075 1.98641 26.3714 2.41524 26.6229C2.84406 26.8744 3.32971 27.0045 3.82294 26.9999H26.2051C26.696 26.9994 27.1781 26.8656 27.603 26.612C28.0279 26.3585 28.3807 25.994 28.6259 25.5553C28.8711 25.1165 29.0001 24.619 29 24.1125C28.9999 23.606 28.8706 23.1085 28.6252 22.6699Z" stroke="white" stroke-width="2" stroke-linecap="round" stroke-linejoin="round"/>
</svg>
