<svg width="30" height="30" viewBox="0 0 30 30" fill="none" xmlns="http://www.w3.org/2000/svg">
<path d="M19.9525 14.0098C19.6899 14.2724 19.5424 14.6286 19.5424 15C19.5424 15.3714 19.6899 15.7276 19.9525 15.9902L23.2803 19.3194C23.5429 19.582 23.8991 19.7295 24.2705 19.7295C24.6419 19.7295 24.9981 19.582 25.2607 19.3194L28.5899 15.9902C28.8525 15.7276 29 15.3714 29 15C29 14.6286 28.8525 14.2724 28.5899 14.0098L25.2607 10.6806C24.9981 10.418 24.6419 10.2705 24.2705 10.2705C23.8991 10.2705 23.5429 10.418 23.2803 10.6806L19.9525 14.0098Z" stroke="white" stroke-width="2" stroke-linecap="round" stroke-linejoin="round"/>
<path d="M1.41007 14.0098C1.1475 14.2724 1 14.6286 1 15C1 15.3714 1.1475 15.7276 1.41007 15.9902L4.73928 19.3194C5.00193 19.582 5.35811 19.7295 5.72949 19.7295C6.10088 19.7295 6.45706 19.582 6.71971 19.3194L10.0489 15.9902C10.3115 15.7276 10.459 15.3714 10.459 15C10.459 14.6286 10.3115 14.2724 10.0489 14.0098L6.71971 10.6806C6.45706 10.418 6.10088 10.2705 5.72949 10.2705C5.35811 10.2705 5.00193 10.418 4.73928 10.6806L1.41007 14.0098Z" stroke="white" stroke-width="2" stroke-linecap="round" stroke-linejoin="round"/>
<path d="M10.6806 23.2803C10.5504 23.4104 10.4471 23.5648 10.3766 23.7349C10.3061 23.9049 10.2698 24.0871 10.2698 24.2712C10.2698 24.4553 10.3061 24.6375 10.3766 24.8075C10.4471 24.9776 10.5504 25.132 10.6806 25.2621L14.0098 28.5899C14.2724 28.8525 14.6286 29 15 29C15.3714 29 15.7276 28.8525 15.9902 28.5899L19.3194 25.2621C19.4496 25.132 19.5529 24.9776 19.6234 24.8075C19.6939 24.6375 19.7302 24.4553 19.7302 24.2712C19.7302 24.0871 19.6939 23.9049 19.6234 23.7349C19.5529 23.5648 19.4496 23.4104 19.3194 23.2803L15.9902 19.9525C15.7276 19.6899 15.3714 19.5424 15 19.5424C14.6286 19.5424 14.2724 19.6899 14.0098 19.9525L10.6806 23.2803Z" stroke="white" stroke-width="2" stroke-linecap="round" stroke-linejoin="round"/>
<path d="M10.6806 4.73928C10.418 5.00193 10.2705 5.35811 10.2705 5.72949C10.2705 6.10088 10.418 6.45706 10.6806 6.71971L14.0098 10.0475C14.2724 10.3101 14.6286 10.4576 15 10.4576C15.3714 10.4576 15.7276 10.3101 15.9902 10.0475L19.3194 6.71971C19.582 6.45706 19.7295 6.10088 19.7295 5.72949C19.7295 5.35811 19.582 5.00193 19.3194 4.73928L15.9902 1.41007C15.7276 1.1475 15.3714 1 15 1C14.6286 1 14.2724 1.1475 14.0098 1.41007L10.6806 4.73928Z" stroke="white" stroke-width="2" stroke-linecap="round" stroke-linejoin="round"/>
</svg>
