<svg width="30" height="29" viewBox="0 0 30 29" fill="none" xmlns="http://www.w3.org/2000/svg">
<path d="M23.1059 3.99986H29M26.0529 1V6.99971M27.5044 15.2283C27.3663 17.8324 26.4901 20.34 24.9818 22.4481C23.4735 24.5561 21.3976 26.1743 19.005 27.107C16.6125 28.0398 14.0058 28.2471 11.5 27.704C8.99413 27.1609 6.6965 25.8906 4.8848 24.0466C3.07309 22.2027 1.82489 19.864 1.29107 17.3134C0.757254 14.7627 0.960674 12.1093 1.87674 9.67381C2.79282 7.23833 4.38232 5.12508 6.4531 3.58953C8.52389 2.05397 10.9873 1.16185 13.5456 1.021C14.1423 0.988 14.4547 1.71097 14.1379 2.22544C13.0783 3.95119 12.6246 5.99156 12.8508 8.01359C13.077 10.0356 13.9698 11.9199 15.3835 13.3589C16.7972 14.798 18.6484 15.7068 20.6348 15.937C22.6213 16.1673 24.6257 15.7055 26.3211 14.6268C26.828 14.3044 27.5368 14.6208 27.5044 15.2283Z" stroke="white" stroke-width="2" stroke-linecap="round" stroke-linejoin="round"/>
</svg>
