<svg width="30" height="30" viewBox="0 0 30 30" fill="none" xmlns="http://www.w3.org/2000/svg">
<path d="M14.9987 1C17.7147 0.999505 20.3721 1.78916 22.6472 3.27271C24.9222 4.75626 26.7166 6.86965 27.8117 9.35529C28.9067 11.8409 29.2552 14.5915 28.8145 17.2717C28.3738 19.9519 27.163 22.446 25.3298 24.4501M14.9987 6.60002V15.0001L20.5982 17.8001M1.69994 10.625C1.25387 11.9812 1.01782 13.3976 1 14.8251M2.16189 20.6001C2.94792 22.4087 4.10713 24.0307 5.56358 25.3601M4.69006 5.52902C5.08068 5.10374 5.49724 4.70304 5.93735 4.32921M10.3007 28.1881C13.7916 29.4318 17.6331 29.2405 20.9832 27.6561" stroke="white" stroke-width="2" stroke-linecap="round" stroke-linejoin="round"/>
</svg>
